<?xml version="1.0" encoding="utf-8"?>
<!DOCTYPE svg PUBLIC "-//W3C//DTD SVG 1.1//EN" "http://www.w3.org/Graphics/SVG/1.1/DTD/svg11.dtd">
<svg version="1.1" id="Back-in-time" xmlns="http://www.w3.org/2000/svg" xmlns:xlink="http://www.w3.org/1999/xlink" x="0px" y="0px"
	 viewBox="0 0 20 20" enable-background="new 0 0 20 20" xml:space="preserve">
<path
   d="M 11.260684,1.239316 C 16.089744,1.239316 20,5.17094 20,10.000001 c 0,4.829059 -3.910256,8.760683 -8.739316,8.760683 -2.0299148,0 -3.8888891,-0.683761 -5.3846156,-1.858974 l 1.517094,-1.602564 c 1.0897433,0.790598 2.4145303,1.260683 3.8675216,1.260683 3.611111,0 6.559829,-2.92735 6.559829,-6.559828 0,-3.632479 -2.948718,-6.581197 -6.559829,-6.581197 -3.5470088,0 -6.4316242,2.84188 -6.5384617,6.367521 v 0.213676 H 7.5641026 L 3.8461538,14.166667 0,10.000001 H 2.5427351 V 9.786325 C 2.6495726,5.042735 6.517094,1.239316 11.260684,1.239316 Z M 10.192307,4.65812 h 2.136753 v 6.410256 l 2.435898,2.435898 c -0.256411,0.25641 -0.534188,0.470085 -0.833334,0.662393 l -3.418803,-3.418803 c -0.106838,-0.08547 -0.192309,-0.213676 -0.235043,-0.341881 -0.0641,-0.128205 -0.08547,-0.277777 -0.08547,-0.405982 z"
   id="path1579"
   style="stroke-width:0.0213676" />
</svg>
