<?xml version="1.0" encoding="UTF-8" standalone="no"?>
<svg
   xmlns:dc="http://purl.org/dc/elements/1.1/"
   xmlns:cc="http://creativecommons.org/ns#"
   xmlns:rdf="http://www.w3.org/1999/02/22-rdf-syntax-ns#"
   xmlns:svg="http://www.w3.org/2000/svg"
   xmlns="http://www.w3.org/2000/svg"
   xmlns:sodipodi="http://sodipodi.sourceforge.net/DTD/sodipodi-0.dtd"
   xmlns:inkscape="http://www.inkscape.org/namespaces/inkscape"
   version="1.1"
   id="Archive"
   x="0px"
   y="0px"
   viewBox="0 0 20 20"
   enable-background="new 0 0 20 20"
   xml:space="preserve"
   sodipodi:docname="back-in-time.svg"
   inkscape:version="1.0.1 (c497b03c, 2020-09-10)"><metadata
   id="metadata1586"><rdf:RDF><cc:Work
       rdf:about=""><dc:format>image/svg+xml</dc:format><dc:type
         rdf:resource="http://purl.org/dc/dcmitype/StillImage" /><dc:title></dc:title></cc:Work></rdf:RDF></metadata><defs
   id="defs1584" /><sodipodi:namedview
   pagecolor="#ffffff"
   bordercolor="#666666"
   borderopacity="1"
   objecttolerance="10"
   gridtolerance="10"
   guidetolerance="10"
   inkscape:pageopacity="0"
   inkscape:pageshadow="2"
   inkscape:window-width="1421"
   inkscape:window-height="943"
   id="namedview1582"
   showgrid="false"
   inkscape:zoom="8.7628807"
   inkscape:cx="30.583454"
   inkscape:cy="0.75500081"
   inkscape:window-x="0"
   inkscape:window-y="25"
   inkscape:window-maximized="0"
   inkscape:current-layer="Archive"
   inkscape:document-rotation="0" />
<path
   d="M 11.260684,1.239316 C 16.089744,1.239316 20,5.17094 20,10.000001 c 0,4.829059 -3.910256,8.760683 -8.739316,8.760683 -2.0299148,0 -3.8888891,-0.683761 -5.3846156,-1.858974 l 1.517094,-1.602564 c 1.0897433,0.790598 2.4145303,1.260683 3.8675216,1.260683 3.611111,0 6.559829,-2.92735 6.559829,-6.559828 0,-3.632479 -2.948718,-6.581197 -6.559829,-6.581197 -3.5470088,0 -6.4316242,2.84188 -6.5384617,6.367521 v 0.213676 H 7.5641026 L 3.8461538,14.166667 0,10.000001 H 2.5427351 V 9.786325 C 2.6495726,5.042735 6.517094,1.239316 11.260684,1.239316 Z M 10.192307,4.65812 h 2.136753 v 6.410256 l 2.435898,2.435898 c -0.256411,0.25641 -0.534188,0.470085 -0.833334,0.662393 l -3.418803,-3.418803 c -0.106838,-0.08547 -0.192309,-0.213676 -0.235043,-0.341881 -0.0641,-0.128205 -0.08547,-0.277777 -0.08547,-0.405982 z"
   id="path1579"
   style="stroke-width:0.0213676" />
</svg>
