<?xml version="1.0" encoding="utf-8"?>
<svg version="1.1" id="Archive" xmlns="http://www.w3.org/2000/svg" xmlns:xlink="http://www.w3.org/1999/xlink" x="0px" y="0px"
	 viewBox="0 0 20 20" enable-background="new 0 0 20 20" xml:space="preserve">
  <path
     d="M 9.9947289,3.7056217e-7 A 10.000019,10.000019 0 0 0 1.25e-7,10 10.000019,10.000019 0 0 0 9.9999999,20 10.000019,10.000019 0 0 0 20,10 10.000019,10.000019 0 0 0 9.9999999,3.7056217e-7 a 10.000019,10.000019 0 0 0 -0.0053,0 z M 5.7266159,3.7792485 c 0.6195313,0 1.1482663,0.3029889 1.5865066,0.9088342 0.4382403,0.6058451 0.6574366,1.3351726 0.6574366,2.1878474 v 5.6323059 c 0,0.448794 0.2243608,0.673155 0.6731547,0.673155 h 3.4780602 c 0.448746,0 0.673155,-0.224361 0.673155,-0.673155 V 9.837924 c 0,-0.4337107 -0.224361,-0.6580715 -0.673155,-0.673155 H 11.44862 C 10.580861,9.1346502 9.8477069,8.9080885 9.2495717,8.4849317 8.6510994,8.0621122 8.352032,7.5406944 8.352032,6.9208258 h 3.769836 c 0.80781,0 1.49567,0.2843382 2.06436,0.8526439 0.568354,0.5686903 0.852738,1.2566442 0.852738,2.0644543 v 2.670312 h -9.4e-5 c 0,0.80781 -0.28429,1.496007 -0.852644,2.06436 -0.56869,0.568691 -1.256644,0.852738 -2.064454,0.852738 H 8.6437138 c -0.8078098,0 -1.496101,-0.284095 -2.0644545,-0.852738 -0.5686907,-0.568353 -0.8526434,-1.25655 -0.8526434,-2.06436 z" />
</svg>
