<?xml version="1.0" encoding="utf-8"?>
<!DOCTYPE svg PUBLIC "-//W3C//DTD SVG 1.1//EN" "http://www.w3.org/Graphics/SVG/1.1/DTD/svg11.dtd">
<svg version="1.1" id="Discord" xmlns="http://www.w3.org/2000/svg" xmlns:xlink="http://www.w3.org/1999/xlink" x="0px" y="0px"
	 viewBox="0 0 20 20" enable-background="new 0 0 20 20" xml:space="preserve">
<path
   d="m 16.930833,3.6414882 c -1.274733,-0.584901 -2.64169,-1.0158308 -4.07093,-1.2626421 -0.02603,-0.00476 -0.05203,0.00714 -0.06544,0.030949 -0.175803,0.3126789 -0.370536,0.7205951 -0.506902,1.0412141 -1.537239,-0.230141 -3.0665912,-0.230141 -4.5723095,0 C 7.5788611,3.1232632 7.3770583,2.7224743 7.2004668,2.4097954 7.1870583,2.3867813 7.1610583,2.3748771 7.1350302,2.3788461 5.7065795,2.6248687 4.3396218,3.0557982 3.0641007,3.6414882 c -0.011042,0.0048 -0.020507,0.0127 -0.026789,0.02301 -2.59283095,3.873634 -3.30311573,7.6520558 -2.95467376,11.3836338 0.0015766,0.01825 0.01182479,0.03572 0.02601493,0.04682 1.71067573,1.256281 3.36775733,2.018957 4.99406723,2.524478 0.026028,0.0079 0.053606,-0.0016 0.070169,-0.02301 0.3847042,-0.525352 0.7276337,-1.079295 1.0216619,-1.661831 0.017352,-0.03411 7.887e-4,-0.07459 -0.034676,-0.08808 -0.5439434,-0.206345 -1.061887,-0.457923 -1.5601124,-0.743613 -0.039408,-0.02301 -0.042563,-0.07938 -0.00631,-0.106366 0.104845,-0.07856 0.2097183,-0.16031 0.3098309,-0.242845 0.018113,-0.01507 0.043352,-0.01825 0.064648,-0.0087 3.2731267,1.494394 6.8166765,1.494394 10.0511825,0 0.0213,-0.01031 0.04654,-0.0071 0.06544,0.0079 0.100141,0.08254 0.204986,0.165071 0.31062,0.243634 0.03625,0.02699 0.03389,0.08335 -0.0055,0.106366 -0.498226,0.29124 -1.016169,0.537268 -1.560902,0.742817 -0.03546,0.01349 -0.05124,0.05476 -0.03389,0.08887 0.300338,0.581719 0.643268,1.135662 1.020873,1.661043 0.01577,0.02222 0.04414,0.03175 0.07017,0.0238 1.634197,-0.505521 3.291268,-1.268197 5.001944,-2.524478 0.01499,-0.0111 0.02445,-0.02777 0.02603,-0.04603 0.417014,-4.314112 -0.698479,-8.0615488 -2.957042,-11.3836328 -0.0055,-0.0111 -0.01496,-0.01904 -0.026,-0.0238 z M 6.68334,12.775995 c -0.9854366,0 -1.7974084,-0.904704 -1.7974084,-2.015775 0,-1.1110698 0.7962254,-2.0157738 1.7974084,-2.0157738 1.0090423,0 1.8131549,0.912648 1.7973803,2.0157738 0,1.111071 -0.7962254,2.015775 -1.7973803,2.015775 z m 6.645606,0 c -0.985409,0 -1.797381,-0.904704 -1.797381,-2.015775 0,-1.1110698 0.796197,-2.0157738 1.797381,-2.0157738 1.00907,0 1.813154,0.912648 1.797408,2.0157738 0,1.111071 -0.788338,2.015775 -1.797408,2.015775 z"
   id="path833"
   style="stroke-width:0.28169" />
</svg>
