<?xml version="1.0" encoding="utf-8"?>
<!DOCTYPE svg PUBLIC "-//W3C//DTD SVG 1.1//EN" "http://www.w3.org/Graphics/SVG/1.1/DTD/svg11.dtd">
<svg version="1.1" id="Graduation-cap" xmlns="http://www.w3.org/2000/svg" xmlns:xlink="http://www.w3.org/1999/xlink" x="0px" y="0px"
	 viewBox="0 0 20 20" enable-background="new 0 0 20 20" xml:space="preserve">
<path
   d="m 3.3,12.2425 6.7,3.36 5.52,-2.68 c -0.46,1.88 0.06,2.14 -1.9,3 -1.98,0.86 -2.84,1.68 -3.62,1.68 -0.78,0 -1.7,-0.94 -3.68,-1.8 -1.96,-0.86 -2.56,-1.68 -3.02,-3.56 z m 16.22,-4.9 c 0.64,0.36 0.64,0.96 0,1.32 l -1.56,0.86 -6.18,-2.02 c -0.26,-0.42 -0.96,-0.74 -1.78,-0.74 -1.06,0 -1.9,0.52 -1.9,1.14 0,0.62 0.84,1.14 1.9,1.14 0.26,0 0.5,-0.04 0.74,-0.1 l 5.82,1.38 -5.38,3 c -0.64,0.36 -1.72,0.36 -2.36,0 l -8.34,-4.66 c -0.64,-0.36 -0.64,-0.96 0,-1.32 l 8.34,-4.66 c 0.64,-0.38 1.72,-0.38 2.36,0 z m -2.56,8.82 c 0.8,-4.72 -0.4,-5.84 -0.4,-5.84 l 1.4,-0.78 c 0,0 1,1.44 0.42,6.52 -0.12,1.12 -1.48,0.5 -1.42,0.1 z"
   id="path1982"
   style="stroke-width:0.02" />
</svg>
