<?xml version="1.0" encoding="UTF-8" standalone="no"?>
<svg
   xmlns:dc="http://purl.org/dc/elements/1.1/"
   xmlns:cc="http://creativecommons.org/ns#"
   xmlns:rdf="http://www.w3.org/1999/02/22-rdf-syntax-ns#"
   xmlns:svg="http://www.w3.org/2000/svg"
   xmlns="http://www.w3.org/2000/svg"
   xmlns:sodipodi="http://sodipodi.sourceforge.net/DTD/sodipodi-0.dtd"
   xmlns:inkscape="http://www.inkscape.org/namespaces/inkscape"
   version="1.1"
   id="Archive"
   x="0px"
   y="0px"
   viewBox="0 0 20 20"
   enable-background="new 0 0 20 20"
   xml:space="preserve"
   sodipodi:docname="graduation-cap.svg"
   inkscape:version="1.0.1 (c497b03c, 2020-09-10)"><metadata
   id="metadata1989"><rdf:RDF><cc:Work
       rdf:about=""><dc:format>image/svg+xml</dc:format><dc:type
         rdf:resource="http://purl.org/dc/dcmitype/StillImage" /><dc:title></dc:title></cc:Work></rdf:RDF></metadata><defs
   id="defs1987" /><sodipodi:namedview
   pagecolor="#ffffff"
   bordercolor="#666666"
   borderopacity="1"
   objecttolerance="10"
   gridtolerance="10"
   guidetolerance="10"
   inkscape:pageopacity="0"
   inkscape:pageshadow="2"
   inkscape:window-width="2560"
   inkscape:window-height="1387"
   id="namedview1985"
   showgrid="false"
   inkscape:zoom="33.35"
   inkscape:cx="10"
   inkscape:cy="10"
   inkscape:window-x="0"
   inkscape:window-y="25"
   inkscape:window-maximized="1"
   inkscape:current-layer="Archive" />
<path
   d="m 3.3,12.2425 6.7,3.36 5.52,-2.68 c -0.46,1.88 0.06,2.14 -1.9,3 -1.98,0.86 -2.84,1.68 -3.62,1.68 -0.78,0 -1.7,-0.94 -3.68,-1.8 -1.96,-0.86 -2.56,-1.68 -3.02,-3.56 z m 16.22,-4.9 c 0.64,0.36 0.64,0.96 0,1.32 l -1.56,0.86 -6.18,-2.02 c -0.26,-0.42 -0.96,-0.74 -1.78,-0.74 -1.06,0 -1.9,0.52 -1.9,1.14 0,0.62 0.84,1.14 1.9,1.14 0.26,0 0.5,-0.04 0.74,-0.1 l 5.82,1.38 -5.38,3 c -0.64,0.36 -1.72,0.36 -2.36,0 l -8.34,-4.66 c -0.64,-0.36 -0.64,-0.96 0,-1.32 l 8.34,-4.66 c 0.64,-0.38 1.72,-0.38 2.36,0 z m -2.56,8.82 c 0.8,-4.72 -0.4,-5.84 -0.4,-5.84 l 1.4,-0.78 c 0,0 1,1.44 0.42,6.52 -0.12,1.12 -1.48,0.5 -1.42,0.1 z"
   id="path1982"
   style="stroke-width:0.02" />
</svg>
