<?xml version="1.0" encoding="UTF-8" standalone="no"?>
<svg
   xmlns:dc="http://purl.org/dc/elements/1.1/"
   xmlns:cc="http://creativecommons.org/ns#"
   xmlns:rdf="http://www.w3.org/1999/02/22-rdf-syntax-ns#"
   xmlns:svg="http://www.w3.org/2000/svg"
   xmlns="http://www.w3.org/2000/svg"
   xmlns:sodipodi="http://sodipodi.sourceforge.net/DTD/sodipodi-0.dtd"
   xmlns:inkscape="http://www.inkscape.org/namespaces/inkscape"
   version="1.1"
   id="Archive"
   x="0px"
   y="0px"
   viewBox="0 0 20 20"
   enable-background="new 0 0 20 20"
   xml:space="preserve"
   sodipodi:docname="info.svg"
   inkscape:version="1.0.1 (c497b03c, 2020-09-10)"><metadata
   id="metadata2559"><rdf:RDF><cc:Work
       rdf:about=""><dc:format>image/svg+xml</dc:format><dc:type
         rdf:resource="http://purl.org/dc/dcmitype/StillImage" /><dc:title></dc:title></cc:Work></rdf:RDF></metadata><defs
   id="defs2557" /><sodipodi:namedview
   pagecolor="#ffffff"
   bordercolor="#666666"
   borderopacity="1"
   objecttolerance="10"
   gridtolerance="10"
   guidetolerance="10"
   inkscape:pageopacity="0"
   inkscape:pageshadow="2"
   inkscape:window-width="2560"
   inkscape:window-height="1387"
   id="namedview2555"
   showgrid="false"
   inkscape:zoom="33.35"
   inkscape:cx="10"
   inkscape:cy="10"
   inkscape:window-x="0"
   inkscape:window-y="25"
   inkscape:window-maximized="1"
   inkscape:current-layer="Archive" />
<path
   d="m 12.44,0 q 0.96,0 1.48,0.54 0.52,0.54 0.52,1.38 0,1 -0.78,1.76 -0.78,0.76 -1.9,0.76 -0.96,0 -1.48,-0.52 Q 9.76,3.4 9.8,2.48 9.8,1.56 10.5,0.78 11.2,0 12.44,0 Z M 8.32,20 q -2,0 -1.08,-3.56 l 1.2,-5.08 q 0.28,-1.12 0,-1.12 -0.24,0 -1.08,0.36 -0.84,0.36 -1.44,0.76 L 5.4,10.48 Q 7.2,8.92 9.18,7.96 11.16,7 12.2,7 q 1.56,0 0.72,3.24 l -1.4,5.32 q -0.32,1.28 0.12,1.28 0.88,0 2.36,-1.2 l 0.6,0.8 Q 12.92,18.16 11.1,19.08 9.28,20 8.32,20 Z"
   id="path2552"
   style="stroke-width:0.02" />
</svg>
