<?xml version="1.0" encoding="utf-8"?>
<!DOCTYPE svg PUBLIC "-//W3C//DTD SVG 1.1//EN" "http://www.w3.org/Graphics/SVG/1.1/DTD/svg11.dtd">
<svg version="1.1" id="Info" xmlns="http://www.w3.org/2000/svg" xmlns:xlink="http://www.w3.org/1999/xlink" x="0px" y="0px"
	 viewBox="0 0 20 20" enable-background="new 0 0 20 20" xml:space="preserve">
<path
   d="m 12.44,0 q 0.96,0 1.48,0.54 0.52,0.54 0.52,1.38 0,1 -0.78,1.76 -0.78,0.76 -1.9,0.76 -0.96,0 -1.48,-0.52 Q 9.76,3.4 9.8,2.48 9.8,1.56 10.5,0.78 11.2,0 12.44,0 Z M 8.32,20 q -2,0 -1.08,-3.56 l 1.2,-5.08 q 0.28,-1.12 0,-1.12 -0.24,0 -1.08,0.36 -0.84,0.36 -1.44,0.76 L 5.4,10.48 Q 7.2,8.92 9.18,7.96 11.16,7 12.2,7 q 1.56,0 0.72,3.24 l -1.4,5.32 q -0.32,1.28 0.12,1.28 0.88,0 2.36,-1.2 l 0.6,0.8 Q 12.92,18.16 11.1,19.08 9.28,20 8.32,20 Z"
   id="path2552"
   style="stroke-width:0.02" />
</svg>
