<?xml version="1.0" encoding="UTF-8" standalone="no"?>
<svg
   xmlns:dc="http://purl.org/dc/elements/1.1/"
   xmlns:cc="http://creativecommons.org/ns#"
   xmlns:rdf="http://www.w3.org/1999/02/22-rdf-syntax-ns#"
   xmlns:svg="http://www.w3.org/2000/svg"
   xmlns="http://www.w3.org/2000/svg"
   xmlns:sodipodi="http://sodipodi.sourceforge.net/DTD/sodipodi-0.dtd"
   xmlns:inkscape="http://www.inkscape.org/namespaces/inkscape"
   version="1.1"
   id="Archive"
   x="0px"
   y="0px"
   viewBox="0 0 20 20"
   enable-background="new 0 0 20 20"
   xml:space="preserve"
   sodipodi:docname="install.svg"
   inkscape:version="1.0.1 (c497b03c, 2020-09-10)"><metadata
   id="metadata3129"><rdf:RDF><cc:Work
       rdf:about=""><dc:format>image/svg+xml</dc:format><dc:type
         rdf:resource="http://purl.org/dc/dcmitype/StillImage" /><dc:title></dc:title></cc:Work></rdf:RDF></metadata><defs
   id="defs3127" /><sodipodi:namedview
   pagecolor="#ffffff"
   bordercolor="#666666"
   borderopacity="1"
   objecttolerance="10"
   gridtolerance="10"
   guidetolerance="10"
   inkscape:pageopacity="0"
   inkscape:pageshadow="2"
   inkscape:window-width="2560"
   inkscape:window-height="1387"
   id="namedview3125"
   showgrid="false"
   inkscape:zoom="33.35"
   inkscape:cx="10"
   inkscape:cy="10"
   inkscape:window-x="0"
   inkscape:window-y="25"
   inkscape:window-maximized="1"
   inkscape:current-layer="Archive" />
<path
   d="m 19.676565,10.961248 c 0.299055,0.768998 0.40586,1.60208 0.256333,2.413801 l -0.619471,3.780909 c -0.128167,0.811721 -0.833082,1.38847 -1.623442,1.38847 H 2.3100138 c -0.790359,0 -1.49527499,-0.576749 -1.62344099,-1.38847 l -0.619471,-3.780909 c -0.149527,-0.811721 -0.04272,-1.644803 0.256333,-2.413801 L 3.7198448,2.480903 c 0.234972,-0.619471 0.854443,-1.025331 1.516636,-1.025331 h 2.606051 l -0.405861,4.336297 h -2.883744 l 5.447073,4.528547 5.4470732,-4.528547 h -2.883745 l -0.40586,-4.336297 h 2.606051 c 0.662193,0 1.281664,0.40586 1.516636,1.025331 z m -2.242913,4.635352 0.3845,-2.328356 c 0.106805,-0.59811 -0.341777,-1.132137 -0.939887,-1.132137 H 3.1217348 c -0.59811,0 -1.046692,0.534027 -0.939887,1.132137 l 0.384499,2.328356 c 0.08544,0.469944 0.491305,0.811721 0.961248,0.811721 H 16.472404 c 0.491305,0 0.875804,-0.341777 0.961248,-0.811721 z"
   id="path3122"
   style="stroke-width:0.0213611" />
</svg>
