<?xml version="1.0" encoding="utf-8"?>
<!DOCTYPE svg PUBLIC "-//W3C//DTD SVG 1.1//EN" "http://www.w3.org/Graphics/SVG/1.1/DTD/svg11.dtd">
<svg version="1.1" id="Light-bulb" xmlns="http://www.w3.org/2000/svg" xmlns:xlink="http://www.w3.org/1999/xlink" x="0px" y="0px"
	 viewBox="0 0 20 20" enable-background="new 0 0 20 20" xml:space="preserve">
<path
   d="m 7.18012,19.179196 c 0.79996,0.49998 1.69993,0.83997 2.81988,0.81997 1.11995,0.02 2.01991,-0.31999 2.81988,-0.81997 l -0.02,-2.17991 H 7.20012 Z m 5.51977,-3.17987 c 0,-4.35981 4.6198,-5.83975 4.27982,-10.1795698 C 16.75972,3.0798662 14.89979,-3.8467173e-6 10,-3.8467173e-6 5.1002,-3.8467173e-6 3.24028,3.0798662 3.02029,5.8197562 2.68031,10.159576 7.30011,11.639516 7.30011,15.999326 Z M 5.00021,5.9997462 C 5.2002,3.3998562 7.12012,1.9999162 10,1.9999162 c 2.87988,0 4.6598,1.37994 4.8598,3.95983 0.11999,1.43994 -0.69998,2.3799 -1.79993,3.93984 -0.81996,1.1399498 -1.59993,2.3398998 -2.05991,4.0998298 H 9.00004 C 8.56006,12.239486 7.76009,11.039536 6.94013,9.8995862 5.84017,8.3396462 4.88021,7.4196862 5.00021,5.9997462 Z"
   id="path3692"
   style="stroke-width:0.0199992" />
</svg>
