<?xml version="1.0" encoding="UTF-8" standalone="no"?>
<svg
   xmlns:dc="http://purl.org/dc/elements/1.1/"
   xmlns:cc="http://creativecommons.org/ns#"
   xmlns:rdf="http://www.w3.org/1999/02/22-rdf-syntax-ns#"
   xmlns:svg="http://www.w3.org/2000/svg"
   xmlns="http://www.w3.org/2000/svg"
   xmlns:sodipodi="http://sodipodi.sourceforge.net/DTD/sodipodi-0.dtd"
   xmlns:inkscape="http://www.inkscape.org/namespaces/inkscape"
   version="1.1"
   id="Archive"
   x="0px"
   y="0px"
   viewBox="0 0 20 20"
   enable-background="new 0 0 20 20"
   xml:space="preserve"
   sodipodi:docname="location.svg"
   inkscape:version="1.0.1 (c497b03c, 2020-09-10)"><metadata
   id="metadata4269"><rdf:RDF><cc:Work
       rdf:about=""><dc:format>image/svg+xml</dc:format><dc:type
         rdf:resource="http://purl.org/dc/dcmitype/StillImage" /><dc:title></dc:title></cc:Work></rdf:RDF></metadata><defs
   id="defs4267" /><sodipodi:namedview
   pagecolor="#ffffff"
   bordercolor="#666666"
   borderopacity="1"
   objecttolerance="10"
   gridtolerance="10"
   guidetolerance="10"
   inkscape:pageopacity="0"
   inkscape:pageshadow="2"
   inkscape:window-width="2560"
   inkscape:window-height="1387"
   id="namedview4265"
   showgrid="false"
   inkscape:zoom="33.35"
   inkscape:cx="10"
   inkscape:cy="10"
   inkscape:window-x="0"
   inkscape:window-y="25"
   inkscape:window-maximized="1"
   inkscape:current-layer="Archive" />
<path
   d="m 10,0 q 2.6,0 4.425,1.825 1.825,1.825 1.825,4.425 0,2.65 -1.55,6.075 -1.55,3.425 -3.15,5.575 L 10,20 Q 9.75,19.7 9.325,19.125 8.9,18.55 7.825,16.9 6.75,15.25 5.925,13.65 5.1,12.05 4.425,9.975 3.75,7.9 3.75,6.25 3.75,3.65 5.575,1.825 7.4,0 10,0 Z m 0,9.7 q 1.4,0 2.4,-1 1,-1 1,-2.4 0,-1.4 -1,-2.375 Q 11.4,2.95 10,2.95 8.6,2.95 7.625,3.925 6.65,4.9 6.65,6.3 q 0,1.4 0.975,2.4 0.975,1 2.375,1 z"
   id="path4262"
   style="stroke-width:0.025" />
</svg>
