<?xml version="1.0" encoding="UTF-8" standalone="no"?>
<svg
   xmlns:dc="http://purl.org/dc/elements/1.1/"
   xmlns:cc="http://creativecommons.org/ns#"
   xmlns:rdf="http://www.w3.org/1999/02/22-rdf-syntax-ns#"
   xmlns:svg="http://www.w3.org/2000/svg"
   xmlns="http://www.w3.org/2000/svg"
   xmlns:sodipodi="http://sodipodi.sourceforge.net/DTD/sodipodi-0.dtd"
   xmlns:inkscape="http://www.inkscape.org/namespaces/inkscape"
   version="1.1"
   id="Archive"
   x="0px"
   y="0px"
   viewBox="0 0 20 20"
   enable-background="new 0 0 20 20"
   xml:space="preserve"
   sodipodi:docname="magnifying-glass.svg"
   inkscape:version="1.0.1 (c497b03c, 2020-09-10)"><metadata
   id="metadata4839"><rdf:RDF><cc:Work
       rdf:about=""><dc:format>image/svg+xml</dc:format><dc:type
         rdf:resource="http://purl.org/dc/dcmitype/StillImage" /><dc:title></dc:title></cc:Work></rdf:RDF></metadata><defs
   id="defs4837" /><sodipodi:namedview
   pagecolor="#ffffff"
   bordercolor="#666666"
   borderopacity="1"
   objecttolerance="10"
   gridtolerance="10"
   guidetolerance="10"
   inkscape:pageopacity="0"
   inkscape:pageshadow="2"
   inkscape:window-width="2560"
   inkscape:window-height="1387"
   id="namedview4835"
   showgrid="false"
   inkscape:zoom="33.35"
   inkscape:cx="10"
   inkscape:cy="10"
   inkscape:window-x="0"
   inkscape:window-y="25"
   inkscape:window-maximized="1"
   inkscape:current-layer="Archive" />
<path
   d="m 19.53846,16.906042 c 0.48086,0.480861 0.65802,1.062955 0.17716,1.543816 l -1.1895,1.189497 c -0.48086,0.48086 -1.24011,0.48086 -1.69566,0 L 12.02185,14.83075 c -1.16419,0.683328 -2.5055297,1.062955 -3.9481197,1.062955 -4.32774,0 -8.07339002341,-3.745651 -8.07339002341,-8.073395 C 3.4027659e-4,3.492566 3.4929103,0 7.8206503,0 12.14839,0 15.89404,3.74565 15.89404,8.073394 c 0,1.493199 -0.40493,2.885163 -1.13888,4.049352 z M 2.4046403,7.82031 c 0,3.011705 2.6827,5.669092 5.66909,5.669092 2.9863997,0 5.4160097,-2.429611 5.4160097,-5.416008 0,-3.011705 -2.65738,-5.669092 -5.6690897,-5.669092 -2.9864,0 -5.41601,2.429611 -5.41601,5.416008 z"
   id="path4832"
   style="stroke-width:0.0253084" />
</svg>
