<?xml version="1.0" encoding="utf-8"?>
<!DOCTYPE svg PUBLIC "-//W3C//DTD SVG 1.1//EN" "http://www.w3.org/Graphics/SVG/1.1/DTD/svg11.dtd">
<svg version="1.1" id="Magnifying-glass" xmlns="http://www.w3.org/2000/svg" xmlns:xlink="http://www.w3.org/1999/xlink" x="0px" y="0px"
	 viewBox="0 0 20 20" enable-background="new 0 0 20 20" xml:space="preserve">
<path
   d="m 19.53846,16.906042 c 0.48086,0.480861 0.65802,1.062955 0.17716,1.543816 l -1.1895,1.189497 c -0.48086,0.48086 -1.24011,0.48086 -1.69566,0 L 12.02185,14.83075 c -1.16419,0.683328 -2.5055297,1.062955 -3.9481197,1.062955 -4.32774,0 -8.07339002341,-3.745651 -8.07339002341,-8.073395 C 3.4027659e-4,3.492566 3.4929103,0 7.8206503,0 12.14839,0 15.89404,3.74565 15.89404,8.073394 c 0,1.493199 -0.40493,2.885163 -1.13888,4.049352 z M 2.4046403,7.82031 c 0,3.011705 2.6827,5.669092 5.66909,5.669092 2.9863997,0 5.4160097,-2.429611 5.4160097,-5.416008 0,-3.011705 -2.65738,-5.669092 -5.6690897,-5.669092 -2.9864,0 -5.41601,2.429611 -5.41601,5.416008 z"
   id="path4832"
   style="stroke-width:0.0253084" />
</svg>
