<?xml version="1.0" encoding="UTF-8" standalone="no"?>
<svg
   xmlns:dc="http://purl.org/dc/elements/1.1/"
   xmlns:cc="http://creativecommons.org/ns#"
   xmlns:rdf="http://www.w3.org/1999/02/22-rdf-syntax-ns#"
   xmlns:svg="http://www.w3.org/2000/svg"
   xmlns="http://www.w3.org/2000/svg"
   xmlns:sodipodi="http://sodipodi.sourceforge.net/DTD/sodipodi-0.dtd"
   xmlns:inkscape="http://www.inkscape.org/namespaces/inkscape"
   version="1.1"
   id="Archive"
   x="0px"
   y="0px"
   viewBox="0 0 20 20"
   enable-background="new 0 0 20 20"
   xml:space="preserve"
   sodipodi:docname="open-book.svg"
   inkscape:version="1.0.1 (c497b03c, 2020-09-10)"><metadata
   id="metadata5979"><rdf:RDF><cc:Work
       rdf:about=""><dc:format>image/svg+xml</dc:format><dc:type
         rdf:resource="http://purl.org/dc/dcmitype/StillImage" /><dc:title></dc:title></cc:Work></rdf:RDF></metadata><defs
   id="defs5977" /><sodipodi:namedview
   pagecolor="#ffffff"
   bordercolor="#666666"
   borderopacity="1"
   objecttolerance="10"
   gridtolerance="10"
   guidetolerance="10"
   inkscape:pageopacity="0"
   inkscape:pageshadow="2"
   inkscape:window-width="2560"
   inkscape:window-height="1387"
   id="namedview5975"
   showgrid="false"
   inkscape:zoom="33.35"
   inkscape:cx="10"
   inkscape:cy="10"
   inkscape:window-x="0"
   inkscape:window-y="25"
   inkscape:window-maximized="1"
   inkscape:current-layer="Archive" />
<path
   d="m 10.599664,5.0420105 c 0.403029,-0.302272 0.886664,-0.564241 1.471056,-0.745604 0.584392,-0.201514 1.10833,-0.302272 1.591964,-0.382877 l 0.423181,1.329995 c -0.463483,0.08061 -0.987421,0.181364 -1.591965,0.382878 -0.604543,0.181363 -1.068027,0.483635 -1.450904,0.785907 z m 0.926967,2.861509 c 0.403029,-0.28212 0.886663,-0.54409 1.471056,-0.74561 0.584392,-0.18136 1.108329,-0.30227 1.591964,-0.36272 l 0.443332,1.32999 c -0.483635,0.0605 -1.007572,0.18137 -1.591965,0.36273 -0.624695,0.20151 -1.088178,0.48363 -1.471056,0.80606 z m 0.947118,2.8816505 c 0.403029,-0.28212 0.886664,-0.56424 1.471056,-0.7456 0.56424,-0.1813605 1.10833,-0.3022705 1.591964,-0.3627305 L 15.95995,11.00684 c -0.483635,0.0605 -1.007573,0.16121 -1.591965,0.36273 -0.604543,0.20151 -1.088178,0.48363 -1.450904,0.80605 z M 5.3401348,12.98168 C 5.7834667,12.76002 6.267102,12.53835 6.851494,12.33684 7.435886,12.15547 7.979975,12.09502 8.483761,12.07487 l 0.443332,1.39045 c -0.483635,-0.0403 -1.027724,0 -1.632267,0.20151 -0.604544,0.20152 -1.088179,0.42318 -1.5113593,0.64485 z M 3.4862012,7.2183695 c 0.4231805,-0.22167 0.9068153,-0.44333 1.4912074,-0.6247 0.5843921,-0.20151 1.1284814,-0.261966 1.6322674,-0.261966 l 0.443332,1.390446 c -0.483635,-0.0403 -1.027724,0 -1.6322674,0.20152 -0.6045436,0.18136 -1.0881784,0.40303 -1.5113589,0.62469 z M 4.413168,10.10003 C 4.8363485,9.8783595 5.3401348,9.6566895 5.9245269,9.4753295 6.508919,9.2738195 7.053008,9.2133595 7.556794,9.2133595 L 8.000126,10.58366 c -0.483634,-0.0403 -1.047875,0.0202 -1.652419,0.20151 -0.5843917,0.20152 -1.088178,0.42319 -1.4912071,0.64485 z m 6.649979,-8.8867955 c 2.539083,-0.80605804 4.796046,-0.201514 4.796046,-0.201514 L 19.970089,13.70714 c 0.14106,0.38287 -0.241818,0.76575 -0.624695,0.62469 -0.82621,-0.28212 -2.176357,-0.48363 -3.989988,0.10076 -1.712873,0.56424 -2.377871,1.79348 -2.619688,2.61969 -0.100758,0.32242 -0.503787,0.48363 -0.765756,0.26197 -0.7053,-0.52394 -1.95469,-1.14864 -3.687715,-0.5844 -1.813631,0.60455 -2.7809006,1.55166 -3.2846869,2.27712 -0.221666,0.32242 -0.7456037,0.24181 -0.8866639,-0.16121 L -1.7078657e-8,6.1704915 c 0,0 1.450904517078657,-1.81363 3.989987517078657,-2.63984 1.7330249,-0.564241 3.1637775,-0.14106 4.0101385,0.261969 0.423181,-0.806058 1.329996,-2.015145 3.063021,-2.579386 z M 10.96239,15.17819 7.77846,5.4248885 C 7.032857,4.9815565 5.884224,4.5785275 4.4736223,5.0420105 3.0025663,5.5256455 2.1562054,6.2107945 1.7934792,6.5735195 L 5.0781659,16.6291 C 5.6424065,16.16561 6.52907,15.62152 7.798612,15.21849 9.048002,14.81547 10.13618,14.93637 10.96239,15.17819 Z M 17.894489,12.45775 14.629954,2.4021705 c -0.503786,-0.08061 -1.591965,-0.14106 -3.063021,0.342574 -1.410601,0.443332 -2.095751,1.450905 -2.458477,2.256963 l 3.163778,9.7331525 c 0.523938,-0.68515 1.350148,-1.4106 2.599538,-1.81363 1.24939,-0.40303 2.297265,-0.48364 3.022717,-0.46348 z"
   id="path5972"
   style="stroke-width:0.0201515" />
</svg>
