<?xml version="1.0" encoding="utf-8"?>
<!DOCTYPE svg PUBLIC "-//W3C//DTD SVG 1.1//EN" "http://www.w3.org/Graphics/SVG/1.1/DTD/svg11.dtd">
<svg version="1.1" id="Paypal" xmlns="http://www.w3.org/2000/svg" xmlns:xlink="http://www.w3.org/1999/xlink" x="0px" y="0px"
	 viewBox="0 0 20 20" enable-background="new 0 0 20 20" xml:space="preserve">
<path
   d="m 7.6768752,10.755556 c -0.84445,0 -1.53334,0.6 -1.66667,1.422222 l -0.95556,5.6 h -3.06666 c -0.33334,0 -0.57778,-0.288889 -0.53334,-0.622222 l 1.4,-9.088889 1.13334,-7.311111 C 4.0546452,0.311111 4.4324252,0 4.8768752,0 h 6.2888898 c 1.97777,0 3.62222,0.622222 4.57777,1.688889 0.31111,0.377778 0.53334,0.688889 0.66667,1.022222 0.15556,0.355556 0.24444,0.733333 0.24444,1.155556 0,0.08889 0,0.177777 0,0.333333 -0.0222,0.2 -0.0444,0.422222 -0.0667,0.688889 -0.0222,0.111111 -0.0444,0.222222 -0.0667,0.355555 -0.73333,3.711112 -3,5.511112 -6.9999998,5.511112 z M 17.787985,5.644444 c 0.77778,0.911112 0.91111,2.2 0.62222,3.733334 -0.73333,3.711111 -3.2,5 -6.37778,5 h -0.48889 c -0.37777,0 -0.71111,0.288889 -0.77777,0.666666 l -0.0222,0.222223 -0.62222,3.911111 -0.0444,0.155555 C 10.032425,19.711111 9.6990952,20 9.2990952,20 h -3.22222 l 1.22222,-7.622222 c 0.0444,-0.177778 0.2,-0.311111 0.37778,-0.311111 h 1.84444 c 4.5333298,0 7.3777798,-2.222223 8.2666698,-6.422223 z"
   id="path6542"
   style="stroke-width:0.0222222" />
</svg>
