<?xml version="1.0" encoding="utf-8"?>
<!DOCTYPE svg PUBLIC "-//W3C//DTD SVG 1.1//EN" "http://www.w3.org/Graphics/SVG/1.1/DTD/svg11.dtd">
<svg version="1.1" id="Skype" xmlns="http://www.w3.org/2000/svg" xmlns:xlink="http://www.w3.org/1999/xlink" x="0px" y="0px"
	 viewBox="0 0 20 20" enable-background="new 0 0 20 20" xml:space="preserve">
<path
   d="m 19.041666,12.125 c 0.354167,0.72917 0.541667,1.54167 0.541667,2.41667 0,3.02083 -2.375,5.45833 -5.291667,5.45833 C 13.375,20 12.520833,19.77083 11.770833,19.35417 11.229166,19.45833 10.666666,19.5 10.104166,19.5 c -5.0416665,0 -9.1458325,-4.20833 -9.1458325,-9.39583 0,-0.64584 0.0625,-1.29167 0.1875,-1.89584 -0.458334,-0.8125 -0.729167,-1.75 -0.729167,-2.75 0,-3.02083 2.375,-5.45833 5.3125,-5.45833 1.020833,0 2,0.3125 2.8125,0.83333 0.5,-0.0833 1.020833,-0.14583 1.5625005,-0.14583 5.041667,0 9.145833,4.22917 9.145833,9.41667 0,0.6875 -0.08333,1.375 -0.208334,2.02083 z m -4.25,2.47917 C 15.208333,13.97917 15.4375,13.27083 15.4375,12.5 c 0,-0.64583 -0.125,-1.20833 -0.375,-1.66667 -0.25,-0.4375 -0.604166,-0.8125 -1.041666,-1.10416 C 13.604167,9.4375 13.0625,9.1875 12.458334,8.97917 11.854167,8.79167 11.1875,8.60417 10.4375,8.4375 9.8541665,8.3125 9.4374995,8.1875 9.1874995,8.125 c -0.25,-0.0625 -0.5,-0.16667 -0.75,-0.29167 -0.229166,-0.125 -0.416666,-0.27083 -0.541666,-0.4375 -0.125,-0.14583 -0.1875,-0.3125 -0.1875,-0.54166 0,-0.35417 0.1875,-0.64584 0.583333,-0.89584 0.375,-0.27083 0.916667,-0.39583 1.583333,-0.39583 0.6875005,0 1.2083345,0.10417 1.5208345,0.35417 0.3125,0.25 0.583333,0.60416 0.8125,1.04166 0.208333,0.35417 0.375,0.60417 0.541666,0.75 0.1875,0.16667 0.458334,0.25 0.791667,0.25 0.375,0 0.6875,-0.125 0.9375,-0.39583 0.25,-0.27083 0.375,-0.58333 0.375,-0.91667 0,-0.35416 -0.08333,-0.70833 -0.270833,-1.0625 -0.1875,-0.375 -0.5,-0.70833 -0.895834,-1.04166 -0.395834,-0.3125 -0.916666,-0.58334 -1.520834,-0.77084 -0.583333,-0.1875 -1.3125,-0.29166 -2.125,-0.29166 -1.0208325,0 -1.9166665,0.14583 -2.6874995,0.4375 -0.770833,0.29166 -1.354167,0.72916 -1.770833,1.27083 -0.416667,0.5625 -0.625,1.1875 -0.625,1.89583 0,0.75 0.208333,1.39584 0.604166,1.89584 0.375,0.5 0.916667,0.89583 1.5625,1.1875 0.645834,0.27083 1.4375,0.52083 2.395834,0.72916 0.6874995,0.14584 1.2708325,0.29167 1.6874995,0.41667 0.395833,0.14583 0.708333,0.33333 0.958333,0.5625 0.25,0.22917 0.354167,0.52083 0.354167,0.89583 0,0.45834 -0.208334,0.85417 -0.666667,1.16667 -0.479166,0.33333 -1.083333,0.5 -1.8541665,0.5 -0.541666,0 -0.979166,-0.0833 -1.3125,-0.25 -0.333333,-0.14583 -0.583333,-0.35417 -0.770833,-0.60417 -0.1875,-0.25 -0.375,-0.58333 -0.520833,-0.95833 -0.145834,-0.35417 -0.333334,-0.625 -0.541667,-0.8125 -0.229167,-0.1875 -0.5,-0.29167 -0.8125,-0.29167 -0.375,0 -0.6875,0.125 -0.9375,0.375 -0.270833,0.25 -0.395833,0.54167 -0.395833,0.89584 0,0.54166 0.208333,1.125 0.583333,1.6875 0.395833,0.58333 0.895833,1.04166 1.520833,1.375 0.854167,0.47916 1.958334,0.70833 3.2708345,0.70833 1.083333,0 2.041666,-0.16667 2.854166,-0.52083 0.8125,-0.33334 1.4375,-0.83334 1.854166,-1.4375 z"
   id="path7112"
   style="stroke-width:0.0208333" />
</svg>
