<?xml version="1.0" encoding="UTF-8" standalone="no"?>
<svg
   xmlns:dc="http://purl.org/dc/elements/1.1/"
   xmlns:cc="http://creativecommons.org/ns#"
   xmlns:rdf="http://www.w3.org/1999/02/22-rdf-syntax-ns#"
   xmlns:svg="http://www.w3.org/2000/svg"
   xmlns="http://www.w3.org/2000/svg"
   xmlns:sodipodi="http://sodipodi.sourceforge.net/DTD/sodipodi-0.dtd"
   xmlns:inkscape="http://www.inkscape.org/namespaces/inkscape"
   version="1.1"
   id="Archive"
   x="0px"
   y="0px"
   viewBox="0 0 20 20"
   enable-background="new 0 0 20 20"
   xml:space="preserve"
   sodipodi:docname="traffic-cone.svg"
   inkscape:version="1.0.1 (c497b03c, 2020-09-10)"><metadata
   id="metadata7689"><rdf:RDF><cc:Work
       rdf:about=""><dc:format>image/svg+xml</dc:format><dc:type
         rdf:resource="http://purl.org/dc/dcmitype/StillImage" /><dc:title></dc:title></cc:Work></rdf:RDF></metadata><defs
   id="defs7687" /><sodipodi:namedview
   pagecolor="#ffffff"
   bordercolor="#666666"
   borderopacity="1"
   objecttolerance="10"
   gridtolerance="10"
   guidetolerance="10"
   inkscape:pageopacity="0"
   inkscape:pageshadow="2"
   inkscape:window-width="2560"
   inkscape:window-height="1387"
   id="namedview7685"
   showgrid="false"
   inkscape:zoom="33.35"
   inkscape:cx="10"
   inkscape:cy="10"
   inkscape:window-x="0"
   inkscape:window-y="25"
   inkscape:window-maximized="1"
   inkscape:current-layer="Archive" />
<path
   d="m 9.9903695,12.14332 q -1.8728041,0 -3.2461937,-0.561841 Q 5.3707862,11.019638 5.2875504,10.228898 6.2031435,7.64859 6.4528507,6.941086 q 0.2080894,0.582651 1.2277271,0.957211 1.0196378,0.374561 2.3097917,0.374561 1.3317715,0 2.3306005,-0.374561 0.998829,-0.37456 1.206918,-0.957211 0.249707,0.707504 1.1653,3.287812 -0.08324,0.79074 -1.456625,1.352581 -1.37339,0.561841 -3.2461935,0.561841 z m 0,-6.950184 q -1.9976577,0 -2.5803078,-0.915593 L 8.4921263,1.322674 q 0.2080893,-0.707503 1.4982432,-0.707503 1.2901535,0 1.5398605,0.707503 0.249708,0.79074 1.040447,2.954869 -0.58265,0.915593 -2.5803075,0.915593 z M 19.1463,13.183767 q 0.832358,0.332943 0.853166,0.853166 0.02081,0.520223 -0.76993,0.97802 l -7.324745,3.912076 q -0.790739,0.4578 -1.893613,0.4578 -1.1028731,0 -1.8936126,-0.4578 L 0.75120286,15.014953 Q -0.03953663,14.598774 0.00208123,14.057742 0.0436991,13.51671 0.87605646,13.183767 L 4.788136,11.602288 4.3303395,12.850824 q 0,0.998829 1.6647147,1.706332 1.6647147,0.707504 3.9953153,0.707504 2.3306005,0 3.9953155,-0.707504 1.664714,-0.707503 1.706332,-1.706332 l -0.457796,-1.248536 z"
   id="path7682"
   style="stroke-width:0.0208089" />
</svg>
