<?xml version="1.0" encoding="utf-8"?>
<!DOCTYPE svg PUBLIC "-//W3C//DTD SVG 1.1//EN" "http://www.w3.org/Graphics/SVG/1.1/DTD/svg11.dtd">
<svg version="1.1" id="V-card" xmlns="http://www.w3.org/2000/svg" xmlns:xlink="http://www.w3.org/1999/xlink" x="0px" y="0px"
	 viewBox="0 0 20 20" enable-background="new 0 0 20 20" xml:space="preserve">
<path
   d="m 19,3 c 0.56,0 1,0.44 1,1 v 12 c 0,0.56 -0.44,1 -1,1 H 1 C 0.44,17 0,16.56 0,16 V 4 C 0,3.44 0.44,3 1,3 Z m -6,4 v 1 h 4 V 7 Z m -2,7.8 V 5 H 2 v 9.76 C 2.12,14.68 2.26,14.58 2.48,14.5 3.66,14 5.44,13.24 5.44,12.32 5.44,11.78 5.08,11.96 4.92,10.94 4.84,10.52 4.54,10.94 4.46,9.98 4.46,9.6 4.64,9.5 4.64,9.5 4.64,9.5 4.56,8.94 4.52,8.52 4.5,8.16 4.64,7.5 5.2,7.08 5.88,6.6 6.16,5.94 7.4,6 6.84,6.3 6.96,6.22 7.14,6.42 8.2,6.72 8.46,8.06 8.42,8.52 8.38,8.94 8.3,9.5 8.3,9.5 c 0,0 0.18,0.1 0.18,0.48 -0.06,0.96 -0.38,0.54 -0.46,0.96 -0.14,1.02 -0.5,0.84 -0.5,1.38 0,0.92 1.78,1.68 2.96,2.18 0.22,0.1 0.4,0.2 0.52,0.3 z M 18,11 v -1 h -5 v 1 z"
   id="path8822"
   style="stroke-width:0.02" />
</svg>
