<?xml version="1.0" encoding="utf-8"?>
<!-- Generator: Adobe Illustrator 18.1.0, SVG Export Plug-In . SVG Version: 6.00 Build 0)  -->
<!DOCTYPE svg PUBLIC "-//W3C//DTD SVG 1.1//EN" "http://www.w3.org/Graphics/SVG/1.1/DTD/svg11.dtd">
<svg version="1.1" id="Archive" xmlns="http://www.w3.org/2000/svg" xmlns:xlink="http://www.w3.org/1999/xlink" x="0px" y="0px"
	 viewBox="0 0 20 20" enable-background="new 0 0 20 20" xml:space="preserve">
  <path
     d="M 2.999132,0 C 1.3371319,0 0,1.3371319 0,2.999132 V 17.000868 C 0,18.662868 1.3371319,20 2.999132,20 H 17.000868 C 18.662868,20 20,18.662868 20,17.000868 V 2.999132 C 20,1.3371319 18.662868,0 17.000868,0 Z m 13.797744,6.1284722 c 0.128597,-0.00267 0.212673,0.1152527 0.212673,0.3710938 v 7.000868 c 0,0.232854 -0.06552,0.335134 -0.15842,0.358073 -0.0929,0.02294 -0.21271,-0.03463 -0.325521,-0.119358 L 13.383247,11.449653 V 8.5568577 l 3.142361,-2.296007 c 0.102333,-0.084678 0.194109,-0.1307951 0.271268,-0.1323785 z m -13.6545149,0.00434 h 7.6106769 c 0.587972,-0.00239 1.123915,0.2339238 1.512586,0.6184897 0.388673,0.3845658 0.629194,0.9178643 0.631512,1.5082466 v 5.2213535 c 0,0.21172 -0.174273,0.386286 -0.390626,0.386286 H 4.8958333 C 4.3077683,13.869577 3.7719494,13.633263 3.3832466,13.248698 2.9945437,12.864132 2.7540539,12.330833 2.7517361,11.740451 V 6.5190972 c 0,-0.2117189 0.1742728,-0.3862848 0.390625,-0.386285 z" />
</svg>
