<?xml version="1.0" encoding="utf-8"?>
<!-- Generator: Adobe Illustrator 22.1.0, SVG Export Plug-In . SVG Version: 6.00 Build 0)  -->
<svg version="1.1" id="Capa_1" xmlns="http://www.w3.org/2000/svg" xmlns:xlink="http://www.w3.org/1999/xlink" x="0px" y="0px"
	 viewBox="0 0 480 480" style="enable-background:new 0 0 480 480;" xml:space="preserve">
<style type="text/css">
	.st0{fill:none;stroke:#FFFFFF;stroke-width:11;stroke-miterlimit:10;}
	.st1{fill:none;stroke:#FFFFFF;stroke-width:3;stroke-miterlimit:10;}
	.st2{fill:#FFFFFF;}
</style>
<g>
	<circle class="st0" cx="240" cy="250.3" r="172.8"/>
	<path class="st1" d="M106.8,291.8c-4.1-13.1-6.3-27-6.3-41.5c0-42,18.6-79.7,48-105.3"/>
	<path class="st1" d="M334.1,147.4c27.9,25.5,45.3,62.2,45.3,102.9c0,17.4-3.2,34-9,49.4"/>
	<g>
		<path class="st2" d="M120.5,303.3l1.3,2.9l-18.4,8.4l-1.3-2.9L120.5,303.3z"/>
		<path class="st2" d="M127.3,326.8l-12,8.4l-1.6-2.3l16.5-11.6l2.3,3.3l-8,9.6l9.9-7l1.6,2.3l-16.5,11.6l-1.9-2.7L127.3,326.8z"/>
		<path class="st2" d="M143.3,351.1l3,2.8l-2,2.1l-3-2.8l-5.8,6l-2.3-2.2l14-14.6l6.1,5.8l-2,2.1l-3.8-3.6L143.3,351.1z"/>
		<path class="st2" d="M163.4,362.2c1.7-2.7,4.2-3.4,6.8-1.7c2.6,1.7,3.1,4.1,1.4,6.9l-5.6,8.9c-1.7,2.7-4.2,3.4-6.8,1.7
			c-2.6-1.7-3.1-4.1-1.4-6.9L163.4,362.2z M160.4,373c-0.8,1.2-0.5,2,0.3,2.6c0.9,0.5,1.7,0.4,2.5-0.8l5.8-9.2
			c0.8-1.2,0.5-2-0.3-2.6s-1.7-0.4-2.5,0.8L160.4,373z"/>
		<path class="st2" d="M188.3,392.1c0-0.5,0-0.9,0.6-2.4l1.1-3c0.7-1.8,0.3-2.6-1-3.1l-1-0.4l-2.9,7.7l-3-1.1l7.2-18.9l4.5,1.7
			c3.1,1.2,3.9,3.1,2.8,6l-0.6,1.5c-0.7,1.9-1.8,3-3.4,3.1c1.2,1.2,1.2,2.8,0.4,4.8l-1.1,2.9c-0.3,0.9-0.6,1.6-0.5,2.4L188.3,392.1z
			 M191.2,374.6l-2.2,5.8l1.2,0.4c1.1,0.4,2,0.2,2.5-1.3l0.7-1.9c0.5-1.4,0.3-2.1-0.8-2.5L191.2,374.6z"/>
		<path class="st2" d="M218.8,393.8l4.2-13.9l4.4,0.6l-3,20l-3-0.4l2.1-14.3l-4.3,14l-3-0.4l-0.3-14.5L214,399l-2.7-0.4l3-20
			l4.4,0.6L218.8,393.8z"/>
		<path class="st2" d="M256,400.4l-3.2,0.2L252,397l-3.9,0.3l-0.3,3.7l-2.9,0.2l1.8-20.4l4.6-0.3L256,400.4z M248.4,394.5l3.1-0.2
			l-2.2-10.1L248.4,394.5z"/>
		<path class="st2" d="M269.8,377.6l9.5-2.6l0.8,2.8l-3.2,0.9l4.6,16.7l-3.1,0.8l-4.6-16.7l-3.2,0.9L269.8,377.6z"/>
		<path class="st2" d="M294.6,369.1l2.9-1.4l8.7,18.3l-2.9,1.4L294.6,369.1z"/>
		<path class="st2" d="M315.1,363.2c-1.9-2.6-1.6-5.1,0.9-6.9c2.5-1.8,5-1.3,6.9,1.3l6.1,8.5c0.7,0.9,1,1.8,1.2,2.7
			c0.3,0.2,0.6,0.1,1-0.2l0.2-0.2l1.7,2.3l-0.4,0.3c-1.1,0.8-2.2,0.9-3,0.5c-0.4,0.6-0.9,1.1-1.6,1.6c-2.5,1.8-5,1.3-6.9-1.3
			L315.1,363.2z M323.9,370.1c0.8,1.2,1.7,1.2,2.5,0.7c0.8-0.6,1-1.4,0.2-2.6l-6.4-8.9c-0.8-1.2-1.7-1.2-2.5-0.7
			c-0.8,0.6-1,1.4-0.2,2.6L323.9,370.1z"/>
		<path class="st2" d="M334.7,340.3l11.4,10.6c1.1,1,1.9,0.9,2.6,0.1c0.7-0.7,0.7-1.6-0.3-2.5L337,337.9l2-2.2l11.3,10.5
			c2.4,2.2,2.6,4.6,0.5,6.9c-2.1,2.3-4.6,2.2-6.9,0l-11.3-10.5L334.7,340.3z"/>
		<path class="st2" d="M358.2,323.9l2.3-3.7l2.5,1.5l-2.3,3.7l5,3.1l2.9-4.7l2.5,1.5l-4.5,7.4l-17.2-10.6l4.5-7.4l2.5,1.5l-2.9,4.7
			L358.2,323.9z"/>
	</g>
	<g>
		<path class="st2" d="M182.4,131.4l-4.2-13.9l3.9-1.9l8.6,18.3l-2.7,1.3l-6.2-13.1l4.2,14l-2.7,1.3l-8.2-11.9l6.1,12.9l-2.5,1.2
			l-8.6-18.3l3.9-1.9L182.4,131.4z"/>
		<path class="st2" d="M213.9,127.2l-3.1,0.7l-1.4-3.4l-3.7,0.9l0.3,3.7l-2.8,0.7l-1.6-20.4l4.5-1.1L213.9,127.2z M205.5,122.6
			l2.9-0.7l-3.9-9.6L205.5,122.6z"/>
		<path class="st2" d="M230.3,104.7c3-0.2,4.7,1.6,4.9,4.8l0,0.6l-3,0.2l0-0.8c-0.1-1.4-0.7-2-1.7-1.9s-1.5,0.6-1.5,2.1
			c0.2,4.2,6.4,4.6,6.7,10.4c0.2,3.2-1.3,5.2-4.4,5.3c-3.1,0.2-4.8-1.6-4.9-4.8l-0.1-1.2l3-0.2l0.1,1.4c0.1,1.4,0.7,1.9,1.7,1.9
			c1-0.1,1.6-0.6,1.5-2c-0.2-4.2-6.4-4.6-6.7-10.4C225.8,106.8,227.2,104.9,230.3,104.7z"/>
		<path class="st2" d="M251.3,105.3l9.6,1.2l-0.4,2.9l-3.2-0.4l-2.2,17.2l-3.1-0.4l2.2-17.2l-3.2-0.4L251.3,105.3z"/>
		<path class="st2" d="M277.9,119.2l4.1,1.3l-0.9,2.8l-4.1-1.3l-1.7,5.7l5.2,1.6l-0.9,2.8l-8.2-2.5l6-19.3l8.2,2.5l-0.9,2.8
			l-5.2-1.6L277.9,119.2z"/>
		<path class="st2" d="M298.2,140.2c0.1-0.5,0.1-0.9,0.9-2.3l1.5-2.8c0.9-1.7,0.6-2.6-0.6-3.2l-1-0.5l-3.8,7.3l-2.8-1.4l9.3-17.9
			l4.2,2.2c2.9,1.5,3.4,3.5,2,6.3l-0.7,1.4c-1,1.8-2.2,2.7-3.7,2.7c1.1,1.3,0.8,2.9-0.1,4.8l-1.4,2.8c-0.5,0.9-0.8,1.5-0.8,2.3
			L298.2,140.2z M303.2,123.3l-2.9,5.5l1.1,0.6c1,0.5,1.9,0.4,2.7-1l0.9-1.8c0.7-1.3,0.5-2.1-0.5-2.6L303.2,123.3z"/>
	</g>
	<g>
		<g>
			<g>
				<path class="st2" d="M281.5,212.4h-83.1c-1.5,0-2.7,1.2-2.7,2.7v41.4c0,1.5,1.2,2.7,2.7,2.7s2.7-1.2,2.7-2.7v-38.7h77.6v38.7
					l0,0c0,1.5,1.2,2.7,2.7,2.7c1.5,0,2.7-1.2,2.7-2.7v-41.4C284.3,213.6,283.1,212.4,281.5,212.4z"/>
			</g>
		</g>
		<g>
			<g>
				<path class="st2" d="M301.3,266.4h-5.1v-57.6c0-4.6-3.7-8.3-8.3-8.3h-95.9c-4.6,0-8.3,3.7-8.3,8.3v57.6h-5.1
					c-1.4,0-2.5,1.1-2.5,2.5v4.8c0,6.7,5.5,12.2,12.2,12.2h103.1c6.7,0,12.2-5.5,12.2-12.2v-4.8
					C303.7,267.5,302.6,266.4,301.3,266.4z M189.3,208.8c0-1.5,1.3-2.8,2.8-2.8h95.9c1.5,0,2.8,1.3,2.8,2.8v57.6h-37.2
					c-0.2,0-0.4,0-0.5,0c-1.2,0.2-2,1.2-2,2.4c0,2.1-1.7,3.8-3.8,3.8h-14.5c-2.1,0-3.8-1.7-3.8-3.8c0-1.4-1.1-2.5-2.5-2.5h-37.2
					V208.8z M298.8,273.7L298.8,273.7c0,4-3.2,7.2-7.2,7.2H188.4c-4,0-7.2-3.2-7.2-7.2v-2.4h43.2c1.1,3.6,4.4,6.2,8.4,6.2h14.5
					c3.9,0,7.3-2.6,8.4-6.2h43.2L298.8,273.7L298.8,273.7z"/>
			</g>
		</g>
		<g>
			<g>
				<path class="st2" d="M244.1,228.4c-1.1-1.1-2.8-1.1-3.9,0l-17.3,17.3c-1.1,1.1-1.1,2.8,0,3.9c0.5,0.5,1.2,0.8,1.9,0.8
					c0.7,0,1.4-0.3,1.9-0.8l17.3-17.3C245.1,231.2,245.1,229.4,244.1,228.4z"/>
			</g>
		</g>
		<g>
			<g>
				<path class="st2" d="M254.3,238.4c-1.1-1.1-2.8-1.1-3.9,0l-6.9,6.9c-1.1,1.1-1.1,2.8,0,3.9c0.5,0.5,1.2,0.8,1.9,0.8
					c0.7,0,1.4-0.3,1.9-0.8l6.9-6.9C255.4,241.2,255.4,239.4,254.3,238.4z"/>
			</g>
		</g>
	</g>
</g>
</svg>
