<?xml version="1.0" encoding="UTF-8" standalone="no"?>
<!-- Generator: Adobe Illustrator 22.1.0, SVG Export Plug-In . SVG Version: 6.00 Build 0)  -->

<svg
   xmlns:dc="http://purl.org/dc/elements/1.1/"
   xmlns:cc="http://creativecommons.org/ns#"
   xmlns:rdf="http://www.w3.org/1999/02/22-rdf-syntax-ns#"
   xmlns:svg="http://www.w3.org/2000/svg"
   xmlns="http://www.w3.org/2000/svg"
   xmlns:xlink="http://www.w3.org/1999/xlink"
   xmlns:sodipodi="http://sodipodi.sourceforge.net/DTD/sodipodi-0.dtd"
   xmlns:inkscape="http://www.inkscape.org/namespaces/inkscape"
   version="1.1"
   id="Capa_1"
   x="0px"
   y="0px"
   viewBox="0 0 480 480"
   style="enable-background:new 0 0 480 480;"
   xml:space="preserve"
   inkscape:version="0.91 r13725"
   sodipodi:docname="Logo_Master_Info_Blanc.svg"
   inkscape:export-filename="/Users/marie/Documents/Enseignement/Master/master-info/_images/logo.png"
   inkscape:export-xdpi="151.43018"
   inkscape:export-ydpi="151.43018"><metadata
     id="metadata83"><rdf:RDF><cc:Work
         rdf:about=""><dc:format>image/svg+xml</dc:format><dc:type
           rdf:resource="http://purl.org/dc/dcmitype/StillImage" /></cc:Work></rdf:RDF></metadata><defs
     id="defs81"><clipPath
       clipPathUnits="userSpaceOnUse"
       id="clipPath4415"><use
         x="0"
         y="0"
         xlink:href="#g5"
         id="use4417"
         width="100%"
         height="100%" /></clipPath></defs><sodipodi:namedview
     pagecolor="#ffffff"
     bordercolor="#666666"
     borderopacity="1"
     objecttolerance="10"
     gridtolerance="10"
     guidetolerance="10"
     inkscape:pageopacity="0"
     inkscape:pageshadow="2"
     inkscape:window-width="1368"
     inkscape:window-height="750"
     id="namedview79"
     showgrid="false"
     inkscape:zoom="1.13"
     inkscape:cx="256.21719"
     inkscape:cy="240"
     inkscape:window-x="0"
     inkscape:window-y="0"
     inkscape:window-maximized="0"
     inkscape:current-layer="layer1" /><style
     type="text/css"
     id="style3">
	.st0{fill:none;stroke:#FFFFFF;stroke-width:11;stroke-miterlimit:10;}
	.st1{fill:none;stroke:#FFFFFF;stroke-width:3;stroke-miterlimit:10;}
	.st2{fill:#FFFFFF;}
</style><g
     inkscape:groupmode="layer"
     id="layer1"
     inkscape:label="fond"><rect
       style="opacity:1;fill:#3584a0;fill-opacity:1;fill-rule:evenodd;stroke:#d90000;stroke-width:1;stroke-miterlimit:4;stroke-dasharray:none;stroke-opacity:1"
       id="rect4335"
       width="425.66373"
       height="429.20355"
       x="34.513275"
       y="31.327435"
       clip-path="url(#clipPath4415)" /></g><g
     inkscape:groupmode="layer"
     id="layer2"
     inkscape:label="logo"
     style="display:inline"><g
       id="g5"><circle
         class="st0"
         cx="240"
         cy="250.3"
         r="172.8"
         id="circle7"
         style="fill:none;stroke:#ffffff;stroke-width:11;stroke-miterlimit:10" /><path
         class="st1"
         d="m 106.8,291.8 c -4.1,-13.1 -6.3,-27 -6.3,-41.5 0,-42 18.6,-79.7 48,-105.3"
         id="path9"
         inkscape:connector-curvature="0"
         style="fill:none;stroke:#ffffff;stroke-width:3;stroke-miterlimit:10" /><path
         class="st1"
         d="m 334.1,147.4 c 27.9,25.5 45.3,62.2 45.3,102.9 0,17.4 -3.2,34 -9,49.4"
         id="path11"
         inkscape:connector-curvature="0"
         style="fill:none;stroke:#ffffff;stroke-width:3;stroke-miterlimit:10" /><g
         id="g13"><path
           class="st2"
           d="m 120.5,303.3 1.3,2.9 -18.4,8.4 -1.3,-2.9 18.4,-8.4 z"
           id="path15"
           inkscape:connector-curvature="0"
           style="fill:#ffffff" /><path
           class="st2"
           d="m 127.3,326.8 -12,8.4 -1.6,-2.3 16.5,-11.6 2.3,3.3 -8,9.6 9.9,-7 1.6,2.3 -16.5,11.6 -1.9,-2.7 9.7,-11.6 z"
           id="path17"
           inkscape:connector-curvature="0"
           style="fill:#ffffff" /><path
           class="st2"
           d="m 143.3,351.1 3,2.8 -2,2.1 -3,-2.8 -5.8,6 -2.3,-2.2 14,-14.6 6.1,5.8 -2,2.1 -3.8,-3.6 -4.2,4.4 z"
           id="path19"
           inkscape:connector-curvature="0"
           style="fill:#ffffff" /><path
           class="st2"
           d="m 163.4,362.2 c 1.7,-2.7 4.2,-3.4 6.8,-1.7 2.6,1.7 3.1,4.1 1.4,6.9 l -5.6,8.9 c -1.7,2.7 -4.2,3.4 -6.8,1.7 -2.6,-1.7 -3.1,-4.1 -1.4,-6.9 l 5.6,-8.9 z m -3,10.8 c -0.8,1.2 -0.5,2 0.3,2.6 0.9,0.5 1.7,0.4 2.5,-0.8 l 5.8,-9.2 c 0.8,-1.2 0.5,-2 -0.3,-2.6 -0.8,-0.6 -1.7,-0.4 -2.5,0.8 l -5.8,9.2 z"
           id="path21"
           inkscape:connector-curvature="0"
           style="fill:#ffffff" /><path
           class="st2"
           d="m 188.3,392.1 c 0,-0.5 0,-0.9 0.6,-2.4 l 1.1,-3 c 0.7,-1.8 0.3,-2.6 -1,-3.1 l -1,-0.4 -2.9,7.7 -3,-1.1 7.2,-18.9 4.5,1.7 c 3.1,1.2 3.9,3.1 2.8,6 l -0.6,1.5 c -0.7,1.9 -1.8,3 -3.4,3.1 1.2,1.2 1.2,2.8 0.4,4.8 l -1.1,2.9 c -0.3,0.9 -0.6,1.6 -0.5,2.4 l -3.1,-1.2 z m 2.9,-17.5 -2.2,5.8 1.2,0.4 c 1.1,0.4 2,0.2 2.5,-1.3 l 0.7,-1.9 c 0.5,-1.4 0.3,-2.1 -0.8,-2.5 l -1.4,-0.5 z"
           id="path23"
           inkscape:connector-curvature="0"
           style="fill:#ffffff" /><path
           class="st2"
           d="m 218.8,393.8 4.2,-13.9 4.4,0.6 -3,20 -3,-0.4 2.1,-14.3 -4.3,14 -3,-0.4 -0.3,-14.5 -1.9,14.1 -2.7,-0.4 3,-20 4.4,0.6 0.1,14.6 z"
           id="path25"
           inkscape:connector-curvature="0"
           style="fill:#ffffff" /><path
           class="st2"
           d="m 256,400.4 -3.2,0.2 -0.8,-3.6 -3.9,0.3 -0.3,3.7 -2.9,0.2 1.8,-20.4 4.6,-0.3 4.7,19.9 z m -7.6,-5.9 3.1,-0.2 -2.2,-10.1 -0.9,10.3 z"
           id="path27"
           inkscape:connector-curvature="0"
           style="fill:#ffffff" /><path
           class="st2"
           d="m 269.8,377.6 9.5,-2.6 0.8,2.8 -3.2,0.9 4.6,16.7 -3.1,0.8 -4.6,-16.7 -3.2,0.9 -0.8,-2.8 z"
           id="path29"
           inkscape:connector-curvature="0"
           style="fill:#ffffff" /><path
           class="st2"
           d="m 294.6,369.1 2.9,-1.4 8.7,18.3 -2.9,1.4 -8.7,-18.3 z"
           id="path31"
           inkscape:connector-curvature="0"
           style="fill:#ffffff" /><path
           class="st2"
           d="m 315.1,363.2 c -1.9,-2.6 -1.6,-5.1 0.9,-6.9 2.5,-1.8 5,-1.3 6.9,1.3 l 6.1,8.5 c 0.7,0.9 1,1.8 1.2,2.7 0.3,0.2 0.6,0.1 1,-0.2 l 0.2,-0.2 1.7,2.3 -0.4,0.3 c -1.1,0.8 -2.2,0.9 -3,0.5 -0.4,0.6 -0.9,1.1 -1.6,1.6 -2.5,1.8 -5,1.3 -6.9,-1.3 l -6.1,-8.6 z m 8.8,6.9 c 0.8,1.2 1.7,1.2 2.5,0.7 0.8,-0.6 1,-1.4 0.2,-2.6 l -6.4,-8.9 c -0.8,-1.2 -1.7,-1.2 -2.5,-0.7 -0.8,0.6 -1,1.4 -0.2,2.6 l 6.4,8.9 z"
           id="path33"
           inkscape:connector-curvature="0"
           style="fill:#ffffff" /><path
           class="st2"
           d="m 334.7,340.3 11.4,10.6 c 1.1,1 1.9,0.9 2.6,0.1 0.7,-0.7 0.7,-1.6 -0.3,-2.5 l -11.4,-10.6 2,-2.2 11.3,10.5 c 2.4,2.2 2.6,4.6 0.5,6.9 -2.1,2.3 -4.6,2.2 -6.9,0 l -11.3,-10.5 2.1,-2.3 z"
           id="path35"
           inkscape:connector-curvature="0"
           style="fill:#ffffff" /><path
           class="st2"
           d="m 358.2,323.9 2.3,-3.7 2.5,1.5 -2.3,3.7 5,3.1 2.9,-4.7 2.5,1.5 -4.5,7.4 -17.2,-10.6 4.5,-7.4 2.5,1.5 -2.9,4.7 4.7,3 z"
           id="path37"
           inkscape:connector-curvature="0"
           style="fill:#ffffff" /></g><g
         id="g39"><path
           class="st2"
           d="m 182.4,131.4 -4.2,-13.9 3.9,-1.9 8.6,18.3 -2.7,1.3 -6.2,-13.1 4.2,14 -2.7,1.3 -8.2,-11.9 6.1,12.9 -2.5,1.2 -8.6,-18.3 3.9,-1.9 8.4,12 z"
           id="path41"
           inkscape:connector-curvature="0"
           style="fill:#ffffff" /><path
           class="st2"
           d="m 213.9,127.2 -3.1,0.7 -1.4,-3.4 -3.7,0.9 0.3,3.7 -2.8,0.7 -1.6,-20.4 4.5,-1.1 7.8,18.9 z m -8.4,-4.6 2.9,-0.7 -3.9,-9.6 1,10.3 z"
           id="path43"
           inkscape:connector-curvature="0"
           style="fill:#ffffff" /><path
           class="st2"
           d="m 230.3,104.7 c 3,-0.2 4.7,1.6 4.9,4.8 l 0,0.6 -3,0.2 0,-0.8 c -0.1,-1.4 -0.7,-2 -1.7,-1.9 -1,0.1 -1.5,0.6 -1.5,2.1 0.2,4.2 6.4,4.6 6.7,10.4 0.2,3.2 -1.3,5.2 -4.4,5.3 -3.1,0.2 -4.8,-1.6 -4.9,-4.8 l -0.1,-1.2 3,-0.2 0.1,1.4 c 0.1,1.4 0.7,1.9 1.7,1.9 1,-0.1 1.6,-0.6 1.5,-2 -0.2,-4.2 -6.4,-4.6 -6.7,-10.4 -0.1,-3.3 1.3,-5.2 4.4,-5.4 z"
           id="path45"
           inkscape:connector-curvature="0"
           style="fill:#ffffff" /><path
           class="st2"
           d="m 251.3,105.3 9.6,1.2 -0.4,2.9 -3.2,-0.4 -2.2,17.2 -3.1,-0.4 2.2,-17.2 -3.2,-0.4 0.3,-2.9 z"
           id="path47"
           inkscape:connector-curvature="0"
           style="fill:#ffffff" /><path
           class="st2"
           d="m 277.9,119.2 4.1,1.3 -0.9,2.8 -4.1,-1.3 -1.7,5.7 5.2,1.6 -0.9,2.8 -8.2,-2.5 6,-19.3 8.2,2.5 -0.9,2.8 -5.2,-1.6 -1.6,5.2 z"
           id="path49"
           inkscape:connector-curvature="0"
           style="fill:#ffffff" /><path
           class="st2"
           d="m 298.2,140.2 c 0.1,-0.5 0.1,-0.9 0.9,-2.3 l 1.5,-2.8 c 0.9,-1.7 0.6,-2.6 -0.6,-3.2 l -1,-0.5 -3.8,7.3 -2.8,-1.4 9.3,-17.9 4.2,2.2 c 2.9,1.5 3.4,3.5 2,6.3 l -0.7,1.4 c -1,1.8 -2.2,2.7 -3.7,2.7 1.1,1.3 0.8,2.9 -0.1,4.8 l -1.4,2.8 c -0.5,0.9 -0.8,1.5 -0.8,2.3 l -3,-1.7 z m 5,-16.9 -2.9,5.5 1.1,0.6 c 1,0.5 1.9,0.4 2.7,-1 l 0.9,-1.8 c 0.7,-1.3 0.5,-2.1 -0.5,-2.6 l -1.3,-0.7 z"
           id="path51"
           inkscape:connector-curvature="0"
           style="fill:#ffffff" /></g><g
         id="g53"><g
           id="g55"><g
             id="g57"><path
               class="st2"
               d="m 281.5,212.4 -83.1,0 c -1.5,0 -2.7,1.2 -2.7,2.7 l 0,41.4 c 0,1.5 1.2,2.7 2.7,2.7 1.5,0 2.7,-1.2 2.7,-2.7 l 0,-38.7 77.6,0 0,38.7 0,0 c 0,1.5 1.2,2.7 2.7,2.7 1.5,0 2.7,-1.2 2.7,-2.7 l 0,-41.4 c 0.2,-1.5 -1,-2.7 -2.6,-2.7 z"
               id="path59"
               inkscape:connector-curvature="0"
               style="fill:#ffffff" /></g></g><g
           id="g61"><g
             id="g63"><path
               class="st2"
               d="m 301.3,266.4 -5.1,0 0,-57.6 c 0,-4.6 -3.7,-8.3 -8.3,-8.3 l -95.9,0 c -4.6,0 -8.3,3.7 -8.3,8.3 l 0,57.6 -5.1,0 c -1.4,0 -2.5,1.1 -2.5,2.5 l 0,4.8 c 0,6.7 5.5,12.2 12.2,12.2 l 103.1,0 c 6.7,0 12.2,-5.5 12.2,-12.2 l 0,-4.8 c 0.1,-1.4 -1,-2.5 -2.3,-2.5 z m -112,-57.6 c 0,-1.5 1.3,-2.8 2.8,-2.8 l 95.9,0 c 1.5,0 2.8,1.3 2.8,2.8 l 0,57.6 -37.2,0 c -0.2,0 -0.4,0 -0.5,0 -1.2,0.2 -2,1.2 -2,2.4 0,2.1 -1.7,3.8 -3.8,3.8 l -14.5,0 c -2.1,0 -3.8,-1.7 -3.8,-3.8 0,-1.4 -1.1,-2.5 -2.5,-2.5 l -37.2,0 0,-57.5 z m 109.5,64.9 0,0 c 0,4 -3.2,7.2 -7.2,7.2 l -103.2,0 c -4,0 -7.2,-3.2 -7.2,-7.2 l 0,-2.4 43.2,0 c 1.1,3.6 4.4,6.2 8.4,6.2 l 14.5,0 c 3.9,0 7.3,-2.6 8.4,-6.2 l 43.2,0 -0.1,2.4 0,0 z"
               id="path65"
               inkscape:connector-curvature="0"
               style="fill:#ffffff" /></g></g><g
           id="g67"><g
             id="g69"><path
               class="st2"
               d="m 244.1,228.4 c -1.1,-1.1 -2.8,-1.1 -3.9,0 l -17.3,17.3 c -1.1,1.1 -1.1,2.8 0,3.9 0.5,0.5 1.2,0.8 1.9,0.8 0.7,0 1.4,-0.3 1.9,-0.8 L 244,232.3 c 1.1,-1.1 1.1,-2.9 0.1,-3.9 z"
               id="path71"
               inkscape:connector-curvature="0"
               style="fill:#ffffff" /></g></g><g
           id="g73"><g
             id="g75"><path
               class="st2"
               d="m 254.3,238.4 c -1.1,-1.1 -2.8,-1.1 -3.9,0 l -6.9,6.9 c -1.1,1.1 -1.1,2.8 0,3.9 0.5,0.5 1.2,0.8 1.9,0.8 0.7,0 1.4,-0.3 1.9,-0.8 l 6.9,-6.9 c 1.2,-1.1 1.2,-2.9 0.1,-3.9 z"
               id="path77"
               inkscape:connector-curvature="0"
               style="fill:#ffffff" /></g></g></g></g></g></svg>