<?xml version="1.0" encoding="UTF-8" standalone="no"?>
<svg
   version="1.1"
   id="console"
   x="0px"
   y="0px"
   viewBox="0 0 128 128"
   style="enable-background:new 0 0 128 128;"
   xml:space="preserve"
   sodipodi:docname="favicon.svg"
   inkscape:version="1.1 (c4e8f9e, 2021-05-24)"
   inkscape:export-filename="/Users/marie/favicon.png"
   inkscape:export-xdpi="200"
   inkscape:export-ydpi="200"
   xmlns:inkscape="http://www.inkscape.org/namespaces/inkscape"
   xmlns:sodipodi="http://sodipodi.sourceforge.net/DTD/sodipodi-0.dtd"
   xmlns="http://www.w3.org/2000/svg"
   xmlns:svg="http://www.w3.org/2000/svg">
   <defs
   id="defs881" />
   <sodipodi:namedview
   id="namedview879"
   pagecolor="#ffffff"
   bordercolor="#666666"
   borderopacity="1.0"
   inkscape:pageshadow="2"
   inkscape:pageopacity="0.0"
   inkscape:pagecheckerboard="0"
   showgrid="false"
   inkscape:zoom="6.7891839"
   inkscape:cx="56.781493"
   inkscape:cy="70.627045"
   inkscape:window-width="2022"
   inkscape:window-height="1325"
   inkscape:window-x="0"
   inkscape:window-y="25"
   inkscape:window-maximized="0"
   inkscape:current-layer="layer1" />
<style
   type="text/css"
   id="style824">
	.st0{fill:#FBD000;}
	.st1{fill:#FFFFFF;}
	.st2{fill:#415E6D;}
	.st3{fill:#EAEAEA;}
	.st4{fill:#233E49;}
	.st5{fill:#D4D6D6;}
	.st6{fill:#2EBC93;}
	.st7{fill:#0EB8E0;}
	.st8{fill:#EA5E5E;}
	.st9{fill:#92C438;}
	.st10{fill:#F74541;}
	.st11{fill:#EA291C;}
	.st12{fill:#EA3B36;}
	.st13{fill:#A81000;}
	.st14{opacity:0.5;fill:#FFFFFF;}
</style>


       

     <g
   inkscape:groupmode="layer"
   id="layer2"
   inkscape:label="terminal"><g
     id="g959"
     style="enable-background:new 0 0 128 128"><path
       class="st2"
       d="m 118.6,100.1 c 0,2.2 -1.8,4 -4,4 L 13,104 c -2.2,0 -4,-1.8 -4,-4 V 23.7 c 0,-2.2 1.8,-4 4,-4 h 101 c 2.2,0 4,1.8 4,4 z"
       id="path834" /><path
       class="st3"
       d="M 118.7,35.1 H 9 V 23.7 c 0,-2.2 1.8,-4 4,-4 h 101.7 c 0.5,0 4,1.8 4,4 z"
       id="path836" /><path
       class="st4"
       d="M 114,105 H 13 c -2.8,0 -5,-2.2 -5,-5 V 24 c 0,-2.8 2.2,-5 5,-5 h 101 c 1.3,0 2.6,0.5 3.5,1.5 0.9,0.9 1.5,2.2 1.5,3.5 v 76 c 0,2.8 -2.2,5 -5,5 z M 13,21 c -1.7,0 -3,1.3 -3,3 v 76 c 0,1.7 1.3,3 3,3 h 101 c 1.7,0 3,-1.3 3,-3 V 24 c 0,-0.8 -0.3,-1.5 -0.9,-2.1 C 115.5,21.3 114.8,21 114,21 Z"
       id="path838" /><rect
       x="45"
       y="25"
       class="st5"
       width="67"
       height="5"
       id="rect840" /><path
       class="st4"
       d="M 117.6,36 H 9 C 8.4,36 8,35.6 8,35 8,34.4 8.4,34 9,34 h 108.6 c 0.6,0 1,0.4 1,1 0,0.6 -0.5,1 -1,1 z"
       id="path842" /><circle
       class="st9"
       cx="26.5"
       cy="27.5"
       r="2.5"
       id="circle870" /><circle
       class="st10"
       cx="17.5"
       cy="27.5"
       r="2.5"
       id="circle872" /><circle
       class="st0"
       cx="35.5"
       cy="27.5"
       r="2.5"
       id="circle874" /></g><g
     id="g1110"
     transform="translate(0.03867592,-3.3945776)"><path
       class="st1"
       d="m 29.171428,49.726281 -15.974775,5.814342 c -1.033662,0.376223 -2.187204,-0.161683 -2.563426,-1.195344 -0.376222,-1.033662 0.161684,-2.187204 1.195345,-2.563426 l 15.974775,-5.814342 c 1.033662,-0.376223 2.187203,0.161683 2.563426,1.195344 0.376222,1.033662 -0.161684,2.187204 -1.195345,2.563426 z"
       id="path858-0"
       sodipodi:nodetypes="sssssss" /><path
       class="st1"
       d="M 27.803347,49.540623 11.828572,43.726281 c -1.033661,-0.376222 -1.571567,-1.529764 -1.195345,-2.563426 0.376223,-1.033661 1.529764,-1.571567 2.563426,-1.195344 l 15.974775,5.814342 c 1.033661,0.376222 1.571567,1.529764 1.195345,2.563426 -0.376223,1.033661 -1.529764,1.571567 -2.563426,1.195344 z"
       id="path1106"
       sodipodi:nodetypes="sssssss" /></g><path
     class="st1"
     d="m 39.366895,52.334117 h -9 c -1.1,0 -2,-0.9 -2,-2 0,-1.1 0.9,-2 2,-2 h 9 c 1.1,0 2,0.9 2,2 0,1.1 -0.9,2 -2,2 z"
     id="path850" /><g
     id="g1061"
     transform="matrix(0.51597869,0.55177111,-0.55177112,0.79917173,28.233072,-45.764419)" /></g><g
   inkscape:groupmode="layer"
   id="layer1"
   inkscape:label="tresor"
   style="display:inline"><g
     id="g1844"
     transform="matrix(0.91703967,0,0,0.91703967,17.064412,7.7084026)"><path
       class="st11"
       d="M 27,50.8 38,37.1 c 4.3,-5.5 4.2,-5.5 8.2,-5.5 h 38.4 c 4,0 3.9,0 8.2,5.5 l 10.9,13.7 c 7.4,8.2 7.2,8.2 0,16.4 L 73.6,97.4 c -2.6,2.7 -5.7,5.5 -8.2,5.5 -2.6,0 -5.6,-2.7 -8.2,-5.5 L 27,67.2 C 19.7,59 19.6,59 27,50.8 Z"
       id="path1638" /><polygon
       class="st12"
       points="87.2,64.5 43.8,63.8 65.5,102.8 "
       id="polygon1640" /><polygon
       class="st12"
       points="19.9,57.9 42.7,31.1 43.8,64.7 "
       id="polygon1642" /><polygon
       class="st12"
       points="111.1,57.9 88.3,31.1 87.2,64.7 "
       id="polygon1644" /><polygon
       class="st12"
       points="87.2,65 43.8,65 65.5,32.2 "
       id="polygon1646" /><path
       class="st13"
       d="M 105.2,49.5 94.3,35.9 C 90.6,31.1 89.7,30 85.7,30 v 0 H 44.9 c -3.8,0 -4.7,0.9 -8.6,5.9 L 25.4,49.5 C 21.6,53.8 19,56.2 19,59 c 0,3 2.4,5 6.3,9.3 l 0.2,0.2 c 0,0 0.1,0.1 0.1,0.1 l 30.2,30.1 c 2.8,2.9 5.8,6.2 9.3,6.2 2.6,0 5.9,-2 10,-6.2 l 30.1,-30.1 c 0,0 0.1,-0.1 0.1,-0.1 l 0.2,-0.2 c 3.9,-4.4 5.6,-6.5 5.6,-9.3 -0.1,-2.8 -2.1,-5.2 -5.9,-9.5 z M 92.7,37.1 103.6,50.8 c 3.1,3.4 4.8,5.4 5.3,7.1 l -20.7,4.8 1.1,-29.6 c 0.9,0.8 1.8,2 3.4,4 z M 65.3,101.6 44.8,65 h 41 z M 45.6,63 65.3,33 85.4,63 Z M 87.4,32 86.4,60.7 67.1,32 Z M 63.6,32 44.3,61.3 43.5,32 Z M 27,50.8 38,37.1 c 1.8,-2.2 2.8,-3.5 3.6,-4.2 L 42.4,62.7 21.8,57.6 C 22.4,56 24.1,54 27,50.8 Z M 57.1,97.4 27,67.2 c -3.3,-3.7 -5.1,-5.7 -5.4,-7.6 l 20.9,5.1 c 0,0.1 0,0.1 0.1,0.2 l 21,37.4 c -2.2,-0.7 -4.4,-2.8 -6.5,-4.9 z M 103.7,67.2 73.6,97.4 c -2,2.1 -4.4,4.2 -6.4,5.1 l 21,-37.4 c 0,-0.1 0,-0.1 0.1,-0.2 L 109,60 c -0.5,1.8 -2.3,3.8 -5.3,7.2 z"
       id="path1648" /><path
       class="st14"
       d="m 78,60.1 c -0.3,0 -0.7,-0.2 -0.8,-0.5 l -7.1,-11 c -0.3,-0.5 -0.2,-1.1 0.3,-1.4 0.5,-0.3 1.1,-0.2 1.4,0.3 l 7.1,11 c 0.3,0.5 0.2,1.1 -0.3,1.4 -0.3,0.1 -0.5,0.2 -0.6,0.2 z"
       id="path1650" /><path
       class="st14"
       d="m 68.6,45.4 c -0.3,0 -0.7,-0.2 -0.8,-0.5 L 65,40.5 c -0.3,-0.5 -0.2,-1.1 0.3,-1.4 0.5,-0.3 1.1,-0.2 1.4,0.3 l 2.8,4.4 c 0.3,0.5 0.2,1.1 -0.3,1.4 -0.3,0.2 -0.5,0.2 -0.6,0.2 z"
       id="path1652" /><path
       class="st14"
       d="m 66.1,95.5 c -0.2,0 -0.3,0 -0.5,-0.1 C 65.1,95.1 64.9,94.5 65.2,94 L 77.3,71 c 0.3,-0.5 0.9,-0.7 1.4,-0.4 0.5,0.3 0.7,0.9 0.4,1.4 L 67,94.9 c -0.2,0.4 -0.6,0.6 -0.9,0.6 z"
       id="path1654" /><path
       class="st14"
       d="m 26.4,57.3 c -0.2,0 -0.4,-0.1 -0.6,-0.2 -0.4,-0.3 -0.5,-1 -0.2,-1.4 L 38.2,39.9 c 0.3,-0.4 1,-0.5 1.4,-0.2 0.4,0.3 0.5,1 0.2,1.4 L 27.2,56.9 c -0.2,0.2 -0.5,0.4 -0.8,0.4 z"
       id="path1656" /><path
       class="st1"
       d="m 43.7,71.2 c 0,-0.4 -0.4,-0.8 -1,-0.9 L 40.8,70 C 40.3,69.9 39.7,69.4 39.7,68.9 L 39.4,67 c -0.1,-0.5 -0.5,-1 -0.9,-1 -0.4,0 -0.8,0.4 -0.9,1 l -0.2,2 c -0.1,0.5 -0.6,1.1 -1.1,1.1 l -1.9,0.3 c -0.5,0.1 -1,0.5 -1,0.9 0,0.4 0.4,0.8 1,0.9 l 1.9,0.3 c 0.5,0.1 1.1,0.6 1.1,1.1 l 0.3,1.9 c 0.1,0.5 0.5,1 0.9,1 0.4,0 0.8,-0.4 0.9,-1 l 0.3,-2.1 c 0.1,-0.5 0.6,-1 1.1,-1.1 l 1.8,-0.1 c 0.5,-0.2 1,-0.6 1,-1 z"
       id="path1658" /><path
       class="st1"
       d="m 91.6,32.8 c 0,-0.4 -0.4,-0.8 -1,-0.9 L 85.8,31.1 C 85.3,31 84.7,30.5 84.6,29.9 l -0.8,-4.8 c -0.1,-0.5 -0.5,-1 -0.9,-1 -0.4,0 -0.8,0.4 -0.9,1 l -0.8,4.8 C 81.1,30.4 80.6,31 80,31.1 l -4.8,0.8 c -0.5,0.1 -1,0.5 -1,0.9 0,0.4 0.4,0.8 1,0.9 l 4.7,0.6 c 0.5,0.1 1.1,0.6 1.2,1.1 l 0.9,5 c 0.1,0.5 0.5,1 0.9,1 0.4,0 0.8,-0.4 0.9,-1 l 0.9,-5.1 c 0.1,-0.5 0.6,-1 1.2,-1.1 l 4.7,-0.6 c 0.6,0.1 1,-0.3 1,-0.8 z"
       id="path1660"
       style="fill:#ffffff;fill-opacity:1" /><path
       class="st1"
       d="m 95,100.36668 c 0,-0.400001 -0.4,-0.800001 -1,-0.900001 l -1.9,-0.3 c -0.5,-0.1 -1.1,-0.6 -1.1,-1.1 l -0.3,-1.900001 c -0.1,-0.5 -0.5,-1 -0.9,-1 -0.4,0 -0.8,0.4 -0.9,1 l -0.3,1.900001 c -0.1,0.5 -0.6,1.1 -1.1,1.1 l -1.9,0.3 c -0.5,0.1 -1,0.5 -1,0.900001 0,0.4 0.4,0.8 1,0.9 l 1.9,0.3 c 0.5,0.1 1.1,0.6 1.1,1.1 l 0.3,1.9 c 0.1,0.5 0.5,1 0.9,1 0.4,0 0.8,-0.4 0.8,-1 l 0.3,-2.1 c 0.1,-0.5 0.6,-1 1.1,-1.1 l 1.8,-0.1 c 0.7,-0.2 1.2,-0.5 1.2,-0.9 z"
       id="path1668" /></g></g></svg>
